<svg width="30" height="22" viewBox="0 0 30 22" fill="none" xmlns="http://www.w3.org/2000/svg">
<path d="M7.01501 12.475C7.0184 12.5427 7.00798 12.6105 6.98438 12.674C6.96077 12.7376 6.92448 12.7957 6.87771 12.8448C6.83094 12.8939 6.77466 12.933 6.71231 12.9597C6.64996 12.9864 6.58283 13.0001 6.51501 13H1.00001C0.774308 13.0003 0.555124 12.9243 0.378105 12.7843C0.201086 12.6443 0.0766438 12.4485 0.0250138 12.2288C-0.00713503 12.0784 -0.00565299 11.9227 0.0293538 11.773C0.0643607 11.6232 0.132027 11.4831 0.227514 11.3625C1.10977 10.1925 2.28038 9.27125 3.62501 8.68876C3.03467 8.15051 2.5819 7.47864 2.30461 6.72943C2.02732 5.98021 1.9336 5.17546 2.03128 4.38257C2.12897 3.58968 2.41522 2.83175 2.86606 2.17224C3.31691 1.51273 3.91922 0.970848 4.62255 0.591985C5.32588 0.213121 6.10976 0.00830301 6.90852 -0.00531578C7.70729 -0.0189346 8.49769 0.159042 9.21353 0.51371C9.92937 0.868377 10.5498 1.38941 11.0229 2.03316C11.4959 2.67692 11.8079 3.42466 11.9325 4.21376C11.9486 4.31987 11.9296 4.42834 11.8784 4.52266C11.8272 4.61698 11.7465 4.69198 11.6488 4.73626C10.2618 5.37748 9.0871 6.40206 8.2634 7.6891C7.4397 8.97615 7.00133 10.4719 7.00001 12C7.00001 12.16 7.00001 12.3175 7.01501 12.475ZM29.765 11.3613C28.8848 10.1926 27.7169 9.27185 26.375 8.68876C26.9654 8.15051 27.4181 7.47864 27.6954 6.72943C27.9727 5.98021 28.0664 5.17546 27.9687 4.38257C27.8711 3.58968 27.5848 2.83175 27.134 2.17224C26.6831 1.51273 26.0808 0.970848 25.3775 0.591985C24.6741 0.213121 23.8903 0.00830301 23.0915 -0.00531578C22.2927 -0.0189346 21.5023 0.159042 20.7865 0.51371C20.0707 0.868377 19.4502 1.38941 18.9772 2.03316C18.5041 2.67692 18.1922 3.42466 18.0675 4.21376C18.0514 4.31987 18.0704 4.42834 18.1216 4.52266C18.1729 4.61698 18.2535 4.69198 18.3513 4.73626C19.7383 5.37748 20.9129 6.40206 21.7366 7.6891C22.5603 8.97615 22.9987 10.4719 23 12C23 12.16 23 12.3175 22.985 12.475C22.9816 12.5427 22.992 12.6105 23.0157 12.674C23.0393 12.7376 23.0755 12.7957 23.1223 12.8448C23.1691 12.8939 23.2254 12.933 23.2877 12.9597C23.3501 12.9864 23.4172 13.0001 23.485 13H29C29.2257 13.0003 29.4449 12.9243 29.6219 12.7843C29.7989 12.6443 29.9234 12.4485 29.975 12.2288C30.0074 12.0781 30.0059 11.9221 29.9706 11.7721C29.9354 11.6221 29.8673 11.4818 29.7713 11.3613H29.765ZM18.64 16.7588C19.6357 15.9962 20.3674 14.9408 20.7323 13.741C21.0972 12.5411 21.0769 11.257 20.6744 10.0692C20.2718 8.88148 19.5071 7.84971 18.4879 7.11897C17.4686 6.38822 16.246 5.99523 14.9919 5.99523C13.7377 5.99523 12.5151 6.38822 11.4959 7.11897C10.4766 7.84971 9.71198 8.88148 9.30941 10.0692C8.90683 11.257 8.88657 12.5411 9.25147 13.741C9.61636 14.9408 10.3481 15.9962 11.3438 16.7588C9.57693 17.5243 8.1016 18.8354 7.13376 20.5C7.04599 20.652 6.99978 20.8245 6.99979 21.0001C6.9998 21.1756 7.04603 21.3481 7.13382 21.5001C7.22161 21.6521 7.34788 21.7784 7.49993 21.8661C7.65199 21.9539 7.82446 22 8.00001 22H22C22.1756 22 22.348 21.9539 22.5001 21.8661C22.6521 21.7784 22.7784 21.6521 22.8662 21.5001C22.954 21.3481 23.0002 21.1756 23.0002 21.0001C23.0002 20.8245 22.954 20.652 22.8663 20.5C21.8964 18.8343 20.4183 17.5231 18.6488 16.7588H18.64Z" fill="white"/>
</svg>
