<svg width="28" height="28" viewBox="0 0 28 28" fill="none" xmlns="http://www.w3.org/2000/svg">
<path d="M25 14.27C25.005 14.09 25.005 13.91 25 13.73L26.865 11.4C26.9628 11.2777 27.0305 11.1341 27.0626 10.9808C27.0947 10.8275 27.0904 10.6688 27.05 10.5175C26.7437 9.36843 26.2864 8.26506 25.69 7.23625C25.6118 7.10164 25.5033 6.98714 25.3731 6.90186C25.2429 6.81658 25.0946 6.76286 24.94 6.745L21.975 6.415C21.8517 6.285 21.7267 6.16 21.6 6.04L21.25 3.0675C21.232 2.91276 21.1781 2.76437 21.0926 2.63416C21.0071 2.50395 20.8923 2.39551 20.7575 2.3175C19.7288 1.72156 18.6253 1.26506 17.4762 0.959996C17.3249 0.919571 17.1662 0.915251 17.013 0.947385C16.8597 0.979518 16.7161 1.04721 16.5937 1.145L14.27 3C14.09 3 13.91 3 13.73 3L11.4 1.13875C11.2777 1.04096 11.1341 0.973268 10.9808 0.941135C10.8275 0.909002 10.6688 0.913321 10.5175 0.953746C9.36843 1.26003 8.26506 1.71735 7.23625 2.31375C7.10164 2.3919 6.98714 2.5004 6.90186 2.63061C6.81658 2.76081 6.76286 2.90913 6.745 3.06375L6.415 6.03375C6.285 6.15791 6.16 6.28291 6.04 6.40875L3.0675 6.75C2.91276 6.768 2.76437 6.8219 2.63416 6.90741C2.50395 6.99291 2.39551 7.10766 2.3175 7.2425C1.72168 8.27145 1.26479 9.3748 0.958746 10.5237C0.918492 10.6752 0.914375 10.8339 0.946726 10.9872C0.979078 11.1405 1.04699 11.284 1.145 11.4062L3 13.73C3 13.91 3 14.09 3 14.27L1.13875 16.6C1.04096 16.7223 0.973268 16.8659 0.941135 17.0192C0.909002 17.1725 0.913321 17.3312 0.953746 17.4825C1.26003 18.6316 1.71735 19.7349 2.31375 20.7637C2.3919 20.8983 2.5004 21.0128 2.63061 21.0981C2.76081 21.1834 2.90913 21.2371 3.06375 21.255L6.02875 21.585C6.15291 21.715 6.27791 21.84 6.40375 21.96L6.75 24.9325C6.768 25.0872 6.8219 25.2356 6.90741 25.3658C6.99291 25.496 7.10766 25.6045 7.2425 25.6825C8.27145 26.2783 9.3748 26.7352 10.5237 27.0412C10.6752 27.0815 10.8339 27.0856 10.9872 27.0533C11.1405 27.0209 11.284 26.953 11.4062 26.855L13.73 25C13.91 25.005 14.09 25.005 14.27 25L16.6 26.865C16.7223 26.9628 16.8659 27.0305 17.0192 27.0626C17.1725 27.0947 17.3312 27.0904 17.4825 27.05C18.6317 26.7443 19.7352 26.2869 20.7637 25.69C20.8983 25.6118 21.0128 25.5033 21.0981 25.3731C21.1834 25.2429 21.2371 25.0946 21.255 24.94L21.585 21.975C21.715 21.8517 21.84 21.7267 21.96 21.6L24.9325 21.25C25.0872 21.232 25.2356 21.1781 25.3658 21.0926C25.496 21.0071 25.6045 20.8923 25.6825 20.7575C26.2783 19.7285 26.7352 18.6252 27.0412 17.4762C27.0815 17.3248 27.0856 17.1661 27.0533 17.0128C27.0209 16.8595 26.953 16.716 26.855 16.5937L25 14.27ZM14 19C13.0111 19 12.0444 18.7068 11.2221 18.1573C10.3999 17.6079 9.75904 16.827 9.3806 15.9134C9.00216 14.9998 8.90314 13.9944 9.09607 13.0245C9.289 12.0546 9.7652 11.1637 10.4645 10.4645C11.1637 9.7652 12.0546 9.289 13.0245 9.09607C13.9944 8.90314 14.9998 9.00216 15.9134 9.3806C16.827 9.75904 17.6079 10.3999 18.1573 11.2221C18.7068 12.0444 19 13.0111 19 14C19 15.3261 18.4732 16.5978 17.5355 17.5355C16.5978 18.4732 15.3261 19 14 19Z" fill="white"/>
</svg>
