<svg width="26" height="28" viewBox="0 0 26 28" fill="none" xmlns="http://www.w3.org/2000/svg">
<path d="M26 13V23C26 24.3261 25.4732 25.5979 24.5355 26.5355C23.5979 27.4732 22.3261 28 21 28H14C13.7348 28 13.4804 27.8947 13.2929 27.7071C13.1054 27.5196 13 27.2652 13 27C13 26.7348 13.1054 26.4804 13.2929 26.2929C13.4804 26.1054 13.7348 26 14 26H21C21.7956 26 22.5587 25.6839 23.1213 25.1213C23.6839 24.5587 24 23.7957 24 23H21C20.2044 23 19.4413 22.6839 18.8787 22.1213C18.3161 21.5587 18 20.7957 18 20V15C18 14.2044 18.3161 13.4413 18.8787 12.8787C19.4413 12.3161 20.2044 12 21 12H23.9562C23.767 9.92119 22.9902 7.93912 21.7165 6.28532C20.4428 4.63152 18.7248 3.37427 16.7633 2.66043C14.8017 1.94658 12.6775 1.80561 10.6388 2.25398C8.60011 2.70234 6.73107 3.72154 5.25 5.19251C3.40832 7.0099 2.2724 9.42262 2.045 12H5C5.79565 12 6.55871 12.3161 7.12132 12.8787C7.68393 13.4413 8 14.2044 8 15V20C8 20.7957 7.68393 21.5587 7.12132 22.1213C6.55871 22.6839 5.79565 23 5 23H3C2.20435 23 1.44129 22.6839 0.87868 22.1213C0.316071 21.5587 0 20.7957 0 20V13C0.00280367 10.4249 0.769529 7.90848 2.20313 5.7693C3.63673 3.63012 5.67275 1.96435 8.05349 0.982826C10.4342 0.00130248 13.0526 -0.251844 15.5773 0.255429C18.102 0.762701 20.4194 2.00759 22.2362 3.83251C23.4358 5.0379 24.3857 6.46812 25.0316 8.04125C25.6774 9.61438 26.0065 11.2995 26 13Z" fill="white"/>
</svg>
